<svg xmlns="http://www.w3.org/2000/svg" width="139" height="56" fill="none"><path fill="#E2E4E4" d="M3.785 44.785a4.731 4.731 0 0 1-2.585-.77c-.807-.513-1.21-1.173-1.21-1.98 0-.403.092-.898.275-1.485.183-.55.348-1.063.495-1.54a4093.59 4093.59 0 0 1 3.3-10.065 519.302 519.302 0 0 1 3.08-9.075 284.14 284.14 0 0 1 3.245-8.8 244.357 244.357 0 0 1 3.905-9.185c-1.393.257-2.64.642-3.74 1.155-1.063.477-1.925.917-2.585 1.32-.66.367-1.1.55-1.32.55-.147 0-.367-.073-.66-.22a5.668 5.668 0 0 1-.715-.605c-.22-.257-.33-.477-.33-.66a81.998 81.998 0 0 1 3.355-1.32c1.32-.477 2.732-.88 4.235-1.21A21.229 21.229 0 0 1 17.095.4c1.613 0 3.245.22 4.895.66a15.423 15.423 0 0 1 4.62 2.035c1.393.88 2.512 1.98 3.355 3.3.843 1.32 1.265 2.86 1.265 4.62 0 1.907-.422 3.557-1.265 4.95-.843 1.357-1.962 2.512-3.355 3.465a21.608 21.608 0 0 1-4.51 2.255c-1.613.55-3.227.99-4.84 1.32a45.112 45.112 0 0 1-4.235.605c-1.247.073-2.163.11-2.75.11h-.55c-1.1 3.777-2.163 7.498-3.19 11.165a638.285 638.285 0 0 1-2.75 9.9Zm6.16-21.945c2.017-.11 4.052-.44 6.105-.99 2.09-.55 3.997-1.338 5.72-2.365 1.723-1.063 3.117-2.365 4.18-3.905 1.063-1.577 1.595-3.41 1.595-5.5 0-1.98-.477-3.593-1.43-4.84-.917-1.247-2.145-2.163-3.685-2.75-1.503-.623-3.117-.935-4.84-.935-1.357 2.677-2.677 5.885-3.96 9.625a257.878 257.878 0 0 0-3.685 11.66Zm16.51 19.745c-1.137 0-2.09-.385-2.86-1.155-.807-.733-1.21-1.87-1.21-3.41 0-1.32.293-2.732.88-4.235.586-1.54 1.393-3.043 2.42-4.51a24.765 24.765 0 0 1 3.465-4.07c1.32-1.247 2.695-2.237 4.125-2.97 1.466-.733 2.915-1.1 4.345-1.1 1.43 0 2.621.385 3.575 1.155.953.733 1.43 1.723 1.43 2.97 0 .917-.257 1.54-.77 1.87-.477.33-1.119.495-1.925.495.073-.293.128-.605.164-.935.074-.367.11-.697.11-.99 0-.843-.201-1.558-.605-2.145-.403-.623-1.1-.935-2.09-.935-1.026 0-2.071.367-3.135 1.1-1.063.697-2.09 1.65-3.08 2.86a23.805 23.805 0 0 0-2.64 3.85 23.599 23.599 0 0 0-1.814 4.125c-.44 1.357-.66 2.567-.66 3.63 0 1.43.494 2.145 1.485 2.145.843 0 1.76-.385 2.75-1.155.99-.807 1.998-1.815 3.025-3.025a60.7 60.7 0 0 0 3.025-3.85c.953-1.32 1.796-2.53 2.53-3.63.146-.22.238-.33.275-.33.22.037.494.11.824.22.367.11.679.257.935.44.257.183.385.422.385.715 0 .33-.165.788-.495 1.375-.33.55-.696 1.192-1.1 1.925-.403.733-.77 1.485-1.1 2.255-.33.733-.495 1.43-.495 2.09 0 .55.147 1.1.44 1.65.294.513.77.77 1.43.77.99 0 2.292-.715 3.905-2.145 1.614-1.467 3.245-3.648 4.895-6.545l.55.55c-.77 1.98-1.76 3.722-2.97 5.225-1.21 1.503-2.511 2.677-3.904 3.52-1.357.843-2.696 1.265-4.016 1.265-1.356 0-2.364-.403-3.025-1.21-.623-.807-.935-1.687-.935-2.64 0-.22.019-.458.056-.715l.11-.88c-1.577 2.127-3.025 3.722-4.345 4.785-1.284 1.063-2.604 1.595-3.96 1.595ZM44.305 55.4c-.294 0-.569-.165-.825-.495a2.93 2.93 0 0 1-.66-.99c-.147-.33-.22-.532-.22-.605a77.221 77.221 0 0 1 1.54-4.84l1.484-4.345c.477-1.467.954-3.19 1.43-5.17.477-2.017.972-4.51 1.485-7.48.514-2.97 1.027-6.655 1.54-11.055.037-.33.11-.568.22-.715.11-.147.386-.22.825-.22.954 0 1.632.275 2.035.825.404.513.605 1.082.605 1.705 0 .513-.11 1.43-.33 2.75a87.21 87.21 0 0 1-.934 4.675 27.556 27.556 0 0 1 2.31-3.685 14.572 14.572 0 0 1 3.244-3.135c1.21-.843 2.53-1.265 3.96-1.265 1.614 0 2.934.587 3.96 1.76 1.064 1.137 1.596 2.64 1.596 4.51 0 1.43-.33 2.952-.99 4.565-.624 1.577-1.522 3.08-2.695 4.51a14.027 14.027 0 0 1-4.07 3.41c-1.577.88-3.319 1.32-5.225 1.32-.954 0-1.724-.11-2.31-.33-.587-.22-.88-.44-.88-.66 0-.147.128-.238.385-.275h.99a8.83 8.83 0 0 0 4.18-1.045 13.602 13.602 0 0 0 3.63-2.86 13.291 13.291 0 0 0 2.474-3.905c.624-1.43.936-2.842.936-4.235 0-1.173-.257-2.163-.77-2.97-.477-.843-1.266-1.265-2.366-1.265-.953 0-1.906.312-2.86.935-.916.587-1.796 1.357-2.64 2.31a24.291 24.291 0 0 0-2.2 2.915c-.623.99-1.1 1.888-1.43 2.695-.66 2.75-1.32 5.39-1.98 7.92a168.368 168.368 0 0 1-1.925 6.93c-.586 2.09-1.118 3.795-1.594 5.115-.514 1.32-.935 2.127-1.265 2.42a.9.9 0 0 1-.66.275Zm27.589-12.815c-1.137 0-2.09-.385-2.86-1.155-.807-.733-1.21-1.87-1.21-3.41 0-1.32.293-2.732.88-4.235.587-1.54 1.393-3.043 2.42-4.51a24.775 24.775 0 0 1 3.465-4.07c1.32-1.247 2.695-2.237 4.125-2.97 1.467-.733 2.915-1.1 4.345-1.1 1.43 0 2.622.385 3.575 1.155.953.733 1.43 1.723 1.43 2.97 0 .917-.257 1.54-.77 1.87-.477.33-1.118.495-1.925.495.073-.293.128-.605.165-.935.073-.367.11-.697.11-.99 0-.843-.202-1.558-.605-2.145-.403-.623-1.1-.935-2.09-.935-1.027 0-2.072.367-3.135 1.1-1.063.697-2.09 1.65-3.08 2.86a23.805 23.805 0 0 0-2.64 3.85 23.599 23.599 0 0 0-1.815 4.125c-.44 1.357-.66 2.567-.66 3.63 0 1.43.495 2.145 1.485 2.145.843 0 1.76-.385 2.75-1.155.99-.807 1.998-1.815 3.025-3.025a60.663 60.663 0 0 0 3.025-3.85c.953-1.32 1.797-2.53 2.53-3.63.147-.22.238-.33.275-.33.22.037.495.11.825.22.367.11.678.257.935.44s.385.422.385.715c0 .33-.165.788-.495 1.375-.33.55-.697 1.192-1.1 1.925-.403.733-.77 1.485-1.1 2.255-.33.733-.495 1.43-.495 2.09 0 .55.147 1.1.44 1.65.293.513.77.77 1.43.77.99 0 2.292-.715 3.905-2.145 1.613-1.467 3.245-3.648 4.895-6.545l.55.55c-.77 1.98-1.76 3.722-2.97 5.225-1.21 1.503-2.512 2.677-3.905 3.52-1.357.843-2.695 1.265-4.015 1.265-1.357 0-2.365-.403-3.025-1.21-.623-.807-.935-1.687-.935-2.64 0-.22.018-.458.055-.715l.11-.88c-1.577 2.127-3.025 3.722-4.345 4.785-1.283 1.063-2.603 1.595-3.96 1.595ZM95.574 55.4c-.917 0-1.723-.257-2.42-.77-.697-.477-1.045-1.192-1.045-2.145 0-1.173.293-2.218.88-3.135.587-.917 1.375-1.76 2.365-2.53.99-.77 2.127-1.503 3.41-2.2a134.436 134.436 0 0 1 4.015-2.09 79.742 79.742 0 0 0 1.54-4.51 69.805 69.805 0 0 0 1.54-5.555c-1.173 1.907-2.438 3.557-3.795 4.95-1.32 1.357-2.732 2.035-4.235 2.035a5.35 5.35 0 0 1-2.09-.44c-.66-.33-1.21-.825-1.65-1.485-.44-.66-.66-1.503-.66-2.53s.165-2.218.495-3.575a35.818 35.818 0 0 1 1.32-3.96c.513-1.283 1.045-2.347 1.595-3.19s1.027-1.265 1.43-1.265c.147 0 .403.055.77.165.403.11.77.275 1.1.495.367.183.55.385.55.605-.33.477-.697 1.155-1.1 2.035-.403.88-.807 1.87-1.21 2.97a37.58 37.58 0 0 0-.935 3.135c-.257 1.027-.385 1.907-.385 2.64 0 .66.147 1.192.44 1.595.293.403.807.605 1.54.605.697 0 1.467-.33 2.31-.99.88-.697 1.742-1.577 2.585-2.64.88-1.063 1.687-2.2 2.42-3.41.11-.403.202-.807.275-1.21.11-.44.202-.88.275-1.32.11-.513.367-1.1.77-1.76.44-.697 1.118-1.045 2.035-1.045.183 0 .367.018.55.055.183 0 .385.037.605.11 0 .587-.183 1.687-.55 3.3-.33 1.577-.825 3.428-1.485 5.555a77.12 77.12 0 0 1-2.255 6.545c1.723-.66 3.41-1.742 5.06-3.245 1.65-1.54 2.988-3.575 4.015-6.105l.715.55c-.55 1.76-1.393 3.3-2.53 4.62a19.15 19.15 0 0 1-3.74 3.355 31.273 31.273 0 0 1-4.125 2.31 60.96 60.96 0 0 1-3.135 6.6c-1.1 2.053-2.273 3.703-3.52 4.95-1.21 1.283-2.457 1.925-3.74 1.925Zm-.275-1.76c.55 0 1.467-.733 2.75-2.2 1.32-1.43 2.713-3.96 4.18-7.59a100.745 100.745 0 0 0-4.18 2.365c-1.283.807-2.31 1.668-3.08 2.585s-1.155 1.98-1.155 3.19c0 .293.11.642.33 1.045.22.403.605.605 1.155.605Zm25.062-10.835c-1.723 0-3.098-.385-4.125-1.155-.99-.733-1.687-1.65-2.09-2.75-.44-1.1-.66-2.2-.66-3.3 0-1.1.147-1.943.44-2.53.293-.587.642-1.027 1.045-1.32.44-.293.843-.513 1.21-.66.403-.147.678-.293.825-.44a37.13 37.13 0 0 0 3.025-3.795 29.516 29.516 0 0 0 2.42-4.18v-.66c0-1.357.22-2.31.66-2.86.477-.587.972-.88 1.485-.88.293 0 .513.073.66.22.147.147.22.312.22.495s-.055.477-.165.88c-.11.403-.165.917-.165 1.54 0 1.21.238 2.53.715 3.96.477 1.393.953 2.878 1.43 4.455.477 1.54.715 3.153.715 4.84 0 .477-.037.953-.11 1.43a7.04 7.04 0 0 1-.22 1.265c1.283-.22 2.493-.788 3.63-1.705 1.137-.953 2.237-2.457 3.3-4.51l.495.55c-.697 2.017-1.742 3.557-3.135 4.62-1.393 1.027-2.915 1.668-4.565 1.925-.587 1.577-1.522 2.732-2.805 3.465-1.247.733-2.658 1.1-4.235 1.1Zm.11-1.925c.44 0 1.027-.147 1.76-.44.733-.293 1.302-1.045 1.705-2.255a9.754 9.754 0 0 1-4.125-1.815c-1.173-.917-2.053-1.833-2.64-2.75-.807.037-1.21.678-1.21 1.925 0 1.32.385 2.548 1.155 3.685.807 1.1 1.925 1.65 3.355 1.65Zm3.74-3.575c.073-.367.128-.752.165-1.155.037-.403.055-.88.055-1.43 0-1.723-.22-3.428-.66-5.115a133.611 133.611 0 0 1-1.045-4.84 51.092 51.092 0 0 1-2.695 4.015c-.917 1.247-1.797 2.292-2.64 3.135.55 1.173 1.393 2.273 2.53 3.3 1.173 1.027 2.603 1.723 4.29 2.09Zm11.535 3.245a2.15 2.15 0 0 1-1.265-.385c-.33-.22-.495-.587-.495-1.1 0-.403.165-.77.495-1.1.33-.367.733-.642 1.21-.825.513-.22 1.008-.33 1.485-.33.44 0 .788.092 1.045.275.257.183.385.532.385 1.045 0 .367-.147.733-.44 1.1a3.248 3.248 0 0 1-1.045.935 2.69 2.69 0 0 1-1.375.385Z"/></svg>