<svg width="26" height="30" viewBox="0 0 26 30" fill="none" xmlns="http://www.w3.org/2000/svg">
<g filter="url(#filter0_d_1356_1164)">
<path fill-rule="evenodd" clip-rule="evenodd" d="M16.9364 2.73508V3.76997C19.7162 4.06186 21.1382 5.72477 21.1382 8.71446V16.9848C21.1382 20.3106 19.3868 22 15.9402 22H9.70581C6.25923 22 4.50781 20.3106 4.50781 16.9848V8.71446C4.50781 6.72428 5.13446 5.30019 6.41991 4.46874C6.62254 4.31904 6.88469 4.30859 7.09662 4.44176C7.30856 4.57494 7.43371 4.82876 7.41969 5.09698C7.40567 5.3652 7.2549 5.60155 7.03049 5.70708C6.17889 6.25548 5.77719 7.21077 5.77719 8.71446V8.97981H17.4988C17.8493 8.97981 18.1335 9.29266 18.1335 9.67859C18.1335 10.0645 17.8493 10.3774 17.4988 10.3774H5.77719V16.9848C5.77719 19.5233 6.91801 20.5759 9.70581 20.5936H15.9402C18.6878 20.5936 19.8608 19.5145 19.8608 16.9759V8.70561C19.8608 6.4943 18.969 5.42403 16.9364 5.16752V5.83975C16.8895 6.19806 16.6046 6.45964 16.276 6.44599C15.9475 6.43234 15.6812 6.14786 15.659 5.78668V2.67316C15.6652 2.48618 15.7393 2.30977 15.8647 2.18341C15.99 2.05706 16.1561 1.99132 16.3258 2.00092C16.6758 2.02461 16.9457 2.34923 16.9364 2.73508ZM9.78221 6.29279C9.66144 6.42409 9.49793 6.49667 9.32821 6.4943C8.98083 6.48465 8.70509 6.16923 8.7096 5.78668V2.73508C8.74612 2.37709 9.0211 2.10645 9.3483 2.10645C9.6755 2.10645 9.95048 2.37709 9.987 2.73508V3.69921H13.6184C13.9689 3.69921 14.2531 4.01206 14.2531 4.39798C14.2531 4.7839 13.9689 5.09675 13.6184 5.09675H9.97093V5.79553C9.97095 5.9824 9.90298 6.16149 9.78221 6.29279ZM16.6954 12.6152C16.2517 12.6152 15.892 13.0112 15.892 13.4997C15.892 13.9882 16.2517 14.3843 16.6954 14.3843C17.1391 14.3843 17.4988 13.9882 17.4988 13.4997C17.4988 13.2636 17.4131 13.0373 17.2607 12.8711C17.1082 12.705 16.9018 12.6128 16.6874 12.6152H16.6954ZM12.0357 13.4997C12.0357 13.0112 12.3954 12.6152 12.8391 12.6152C13.2828 12.6152 13.6425 13.0112 13.6425 13.4997C13.6425 13.9882 13.2828 14.3843 12.8391 14.3843C12.3954 14.3843 12.0357 13.9882 12.0357 13.4997ZM8.99079 12.6152C8.54708 12.6152 8.18739 13.0112 8.18739 13.4997C8.18739 13.9882 8.54708 14.3843 8.99079 14.3843C9.43449 14.3843 9.79419 13.9882 9.79419 13.4997C9.7942 13.2636 9.70845 13.0373 9.55604 12.8711C9.40363 12.705 9.19722 12.6128 8.98275 12.6152H8.99079ZM15.892 17.082C15.892 16.5935 16.2517 16.1975 16.6954 16.1975H16.6874C16.9018 16.1952 17.1082 16.2873 17.2607 16.4534C17.4131 16.6196 17.4988 16.8459 17.4988 17.082C17.4988 17.5706 17.1391 17.9666 16.6954 17.9666C16.2517 17.9666 15.892 17.5706 15.892 17.082ZM12.8391 16.1975C12.3954 16.1975 12.0357 16.5935 12.0357 17.082C12.0357 17.5706 12.3954 17.9666 12.8391 17.9666C13.2828 17.9666 13.6425 17.5706 13.6425 17.082C13.6425 16.5935 13.2828 16.1975 12.8391 16.1975ZM8.18739 17.082C8.18739 16.5935 8.54708 16.1975 8.99079 16.1975H8.98275C9.19722 16.1952 9.40363 16.2873 9.55604 16.4534C9.70845 16.6196 9.7942 16.8459 9.79419 17.082C9.79419 17.5706 9.43449 17.9666 8.99079 17.9666C8.54708 17.9666 8.18739 17.5706 8.18739 17.082Z" fill="#616164"/>
</g>
<defs>
<filter id="filter0_d_1356_1164" x="-2.26562" y="0" width="30.1758" height="32" filterUnits="userSpaceOnUse" color-interpolation-filters="sRGB">
<feFlood flood-opacity="0" result="BackgroundImageFix"/>
<feColorMatrix in="SourceAlpha" type="matrix" values="0 0 0 0 0 0 0 0 0 0 0 0 0 0 0 0 0 0 127 0" result="hardAlpha"/>
<feOffset dy="4"/>
<feGaussianBlur stdDeviation="2"/>
<feComposite in2="hardAlpha" operator="out"/>
<feColorMatrix type="matrix" values="0 0 0 0 0 0 0 0 0 0 0 0 0 0 0 0 0 0 0.25 0"/>
<feBlend mode="normal" in2="BackgroundImageFix" result="effect1_dropShadow_1356_1164"/>
<feBlend mode="normal" in="SourceGraphic" in2="effect1_dropShadow_1356_1164" result="shape"/>
</filter>
</defs>
</svg>
