<svg xmlns="http://www.w3.org/2000/svg" width="73" height="34" fill="none"><path fill="#D7B686" d="M2.875 26.872c-.55 0-1.067-.154-1.551-.462-.484-.308-.726-.704-.726-1.189 0-.241.055-.538.165-.89.11-.33.209-.639.297-.924.704-2.157 1.364-4.17 1.98-6.04.616-1.87 1.232-3.685 1.848-5.445.616-1.76 1.265-3.52 1.947-5.28.704-1.76 1.485-3.597 2.343-5.51a9.259 9.259 0 0 0-2.244.692c-.638.286-1.155.55-1.551.792-.396.22-.66.33-.792.33-.088 0-.22-.044-.396-.132a3.401 3.401 0 0 1-.43-.363c-.131-.154-.197-.286-.197-.396a49.21 49.21 0 0 1 2.013-.792A20.283 20.283 0 0 1 8.12.537a12.738 12.738 0 0 1 2.74-.297c.968 0 1.947.132 2.937.396a9.254 9.254 0 0 1 2.772 1.221 6.41 6.41 0 0 1 2.013 1.98c.506.792.759 1.716.759 2.772 0 1.144-.253 2.134-.76 2.97a6.96 6.96 0 0 1-2.012 2.08 12.965 12.965 0 0 1-2.706 1.352c-.968.33-1.936.595-2.904.793a27.06 27.06 0 0 1-2.541.362c-.748.044-1.298.066-1.65.066h-.33a669.234 669.234 0 0 0-1.914 6.7c-.594 2.2-1.144 4.18-1.65 5.94ZM6.57 13.704a17.9 17.9 0 0 0 3.663-.594 13.258 13.258 0 0 0 3.432-1.418c1.034-.639 1.87-1.42 2.508-2.344.638-.946.957-2.046.957-3.3 0-1.188-.286-2.156-.858-2.904-.55-.748-1.287-1.298-2.211-1.65a7.506 7.506 0 0 0-2.904-.56c-.814 1.605-1.606 3.53-2.376 5.774a154.72 154.72 0 0 0-2.211 6.996Zm9.906 11.848c-.682 0-1.254-.232-1.716-.694-.484-.44-.726-1.122-.726-2.046 0-.792.176-1.639.528-2.54.352-.924.836-1.826 1.452-2.706a14.862 14.862 0 0 1 2.079-2.442c.792-.748 1.617-1.343 2.475-1.783.88-.44 1.749-.66 2.607-.66.858 0 1.573.232 2.145.694.572.44.858 1.034.858 1.781 0 .55-.154.925-.462 1.123-.286.198-.671.297-1.155.297.044-.177.077-.364.099-.561.044-.22.066-.418.066-.595 0-.505-.121-.934-.363-1.287-.242-.373-.66-.56-1.254-.56-.616 0-1.243.22-1.881.66-.638.417-1.254.99-1.848 1.715a14.283 14.283 0 0 0-1.584 2.31 14.16 14.16 0 0 0-1.09 2.476c-.263.813-.395 1.54-.395 2.177 0 .858.297 1.287.89 1.287.507 0 1.057-.23 1.65-.692a14.105 14.105 0 0 0 1.816-1.816 36.392 36.392 0 0 0 1.815-2.31A71.405 71.405 0 0 0 24 17.204c.088-.133.143-.198.165-.198.132.021.297.066.495.132.22.066.407.154.56.264.155.11.232.253.232.428 0 .198-.1.473-.297.825-.198.33-.418.715-.66 1.155-.242.44-.462.892-.66 1.354-.198.44-.297.857-.297 1.253 0 .33.088.66.264.99.176.309.462.463.858.463.594 0 1.375-.43 2.343-1.288.968-.88 1.947-2.189 2.937-3.927l.33.33c-.462 1.188-1.056 2.233-1.782 3.135-.726.902-1.507 1.607-2.343 2.113-.814.506-1.617.759-2.41.759-.813 0-1.418-.242-1.814-.726-.374-.485-.561-1.012-.561-1.585 0-.131.01-.274.033-.428l.066-.528c-.946 1.276-1.815 2.232-2.607 2.87-.77.639-1.562.957-2.376.957Zm10.71 7.688c-.176 0-.341-.099-.495-.297a1.758 1.758 0 0 1-.396-.593c-.088-.199-.132-.32-.132-.364.308-1.078.616-2.046.924-2.904.286-.835.583-1.704.89-2.607.287-.88.573-1.914.859-3.102.286-1.21.583-2.706.89-4.488.309-1.782.617-3.993.925-6.633.022-.197.066-.34.132-.429.066-.088.23-.132.495-.132.572 0 .979.165 1.22.495.243.309.364.65.364 1.024 0 .307-.066.857-.198 1.65a52.361 52.361 0 0 1-.561 2.805c.374-.726.836-1.463 1.386-2.211a8.743 8.743 0 0 1 1.947-1.882 4.07 4.07 0 0 1 2.376-.758c.968 0 1.76.351 2.376 1.056.638.682.957 1.584.957 2.706 0 .857-.198 1.77-.594 2.738a10.143 10.143 0 0 1-1.617 2.706 8.416 8.416 0 0 1-2.442 2.047c-.946.527-1.991.791-3.135.791-.572 0-1.034-.066-1.386-.198-.352-.131-.528-.264-.528-.395 0-.088.077-.143.23-.166h.595c.88 0 1.716-.209 2.508-.627a8.162 8.162 0 0 0 2.178-1.716 7.977 7.977 0 0 0 1.485-2.343c.374-.858.56-1.704.56-2.54 0-.704-.153-1.299-.461-1.783-.286-.505-.76-.758-1.42-.758-.571 0-1.143.186-1.715.56a7.615 7.615 0 0 0-1.584 1.387 14.57 14.57 0 0 0-1.32 1.748 10.71 10.71 0 0 0-.858 1.617 249.72 249.72 0 0 1-1.188 4.753c-.396 1.54-.781 2.926-1.155 4.158a45.704 45.704 0 0 1-.957 3.069c-.308.792-.561 1.276-.76 1.451a.54.54 0 0 1-.395.165Zm16.553-7.689c-.682 0-1.254-.23-1.716-.692-.484-.44-.726-1.123-.726-2.047 0-.792.176-1.639.528-2.54.352-.924.836-1.826 1.452-2.706a14.862 14.862 0 0 1 2.08-2.442c.791-.748 1.616-1.343 2.474-1.783.88-.44 1.75-.66 2.607-.66.858 0 1.573.232 2.145.694.572.44.858 1.034.858 1.781 0 .55-.154.925-.462 1.123-.286.198-.67.297-1.155.297.044-.177.077-.364.1-.561.043-.22.065-.418.065-.595 0-.505-.12-.934-.363-1.287-.242-.373-.66-.56-1.254-.56-.616 0-1.243.22-1.88.66-.639.417-1.255.99-1.849 1.715a14.283 14.283 0 0 0-1.584 2.31 14.16 14.16 0 0 0-1.089 2.476c-.264.813-.396 1.54-.396 2.177 0 .858.297 1.287.891 1.287.506 0 1.056-.23 1.65-.692a14.105 14.105 0 0 0 1.815-1.816 36.392 36.392 0 0 0 1.815-2.31 71.405 71.405 0 0 0 1.518-2.177c.088-.133.143-.198.165-.198.132.021.297.066.495.132.22.066.407.154.561.264.154.11.231.253.231.428 0 .198-.099.473-.297.825-.198.33-.418.715-.66 1.155-.242.44-.462.892-.66 1.354-.198.44-.297.857-.297 1.253 0 .33.088.66.264.99.176.309.462.463.858.463.594 0 1.375-.43 2.343-1.288.968-.88 1.947-2.189 2.937-3.927l.33.33c-.462 1.188-1.056 2.233-1.782 3.135-.726.902-1.507 1.607-2.343 2.113-.814.506-1.617.759-2.409.759-.814 0-1.419-.242-1.815-.726-.374-.485-.56-1.012-.56-1.585 0-.131.01-.274.032-.428l.066-.528c-.946 1.276-1.815 2.232-2.607 2.87-.77.639-1.562.957-2.376.957Zm14.208 7.69c-.55 0-1.034-.154-1.452-.462-.418-.287-.627-.716-.627-1.288 0-.703.176-1.33.528-1.88.352-.55.825-1.056 1.42-1.518a14.93 14.93 0 0 1 2.045-1.32c.77-.418 1.573-.837 2.41-1.255a47.84 47.84 0 0 0 .923-2.706c.33-1.012.638-2.123.924-3.332-.704 1.143-1.463 2.133-2.277 2.97-.792.814-1.639 1.22-2.54 1.22a3.21 3.21 0 0 1-1.255-.264 2.554 2.554 0 0 1-.99-.89c-.264-.396-.396-.902-.396-1.518 0-.617.1-1.332.297-2.146.22-.814.484-1.605.792-2.375.308-.77.627-1.409.957-1.915.33-.505.616-.758.858-.758.088 0 .242.032.462.098.242.067.462.166.66.298.22.11.33.23.33.363-.198.285-.418.692-.66 1.22a24.735 24.735 0 0 0-.726 1.783c-.22.637-.407 1.265-.56 1.88-.155.616-.232 1.144-.232 1.584 0 .396.088.715.264.957.176.243.484.364.924.364.418 0 .88-.198 1.386-.595a9.667 9.667 0 0 0 1.551-1.584 17.123 17.123 0 0 0 1.452-2.046c.066-.242.121-.484.165-.726.066-.263.121-.527.165-.791.066-.309.22-.66.462-1.057.264-.418.671-.627 1.221-.627.11 0 .22.011.33.034.11 0 .231.021.363.066 0 .351-.11 1.011-.33 1.98a37.188 37.188 0 0 1-.89 3.332 46.342 46.342 0 0 1-1.354 3.928c1.034-.396 2.046-1.046 3.036-1.948.99-.924 1.793-2.145 2.41-3.663l.428.33a7.724 7.724 0 0 1-1.518 2.772c-.66.77-1.408 1.442-2.244 2.014a18.794 18.794 0 0 1-2.475 1.386 36.655 36.655 0 0 1-1.88 3.96c-.66 1.232-1.365 2.221-2.113 2.97-.726.77-1.474 1.154-2.244 1.154Zm-.165-1.056c.33 0 .88-.44 1.65-1.32.792-.858 1.628-2.377 2.508-4.554-.902.483-1.738.956-2.508 1.419-.77.483-1.386 1-1.848 1.55a2.887 2.887 0 0 0-.693 1.915c0 .175.066.384.198.627.132.241.363.363.693.363Zm12.892-7.855a1.29 1.29 0 0 1-.758-.23c-.198-.133-.297-.353-.297-.66 0-.242.099-.463.296-.66.199-.22.44-.386.727-.495.308-.133.605-.198.89-.198.264 0 .474.055.627.165.154.11.231.319.231.627 0 .22-.088.44-.264.66-.153.22-.362.406-.626.56a1.615 1.615 0 0 1-.826.232Z"/></svg>