<svg width="18" height="11" viewBox="0 0 18 11" fill="none" xmlns="http://www.w3.org/2000/svg">
<path d="M11.7117 10.126L13.0116 7.77595L12.2876 2.13191H14.0586L14.3446 5.47224L16.0776 2.13191H17.9056L13.6967 10.126H11.7117ZM6.15857 5.91023C6.43157 4.53623 7.75858 4.10017 9.72058 4.10017C9.83758 3.48917 9.44862 3.33596 8.78662 3.35896C8.20294 3.38722 7.62915 3.52041 7.09265 3.75203L7.24756 2.37898C7.89172 2.17883 8.55886 2.06143 9.23267 2.02986C10.4587 2.00786 11.8216 2.39926 11.5106 3.99226L10.7516 7.74226H8.98059L9.09656 7.1739C8.891 7.38603 8.64528 7.55539 8.37366 7.67146C8.10203 7.78753 7.81003 7.84825 7.51465 7.85017C6.67565 7.84617 5.92867 7.29983 6.15967 5.90583L6.15857 5.91023ZM7.9696 5.82283C7.91386 5.90176 7.8822 5.99531 7.87842 6.09187C7.87464 6.18843 7.89896 6.28421 7.94836 6.36726C7.99777 6.45031 8.07008 6.51737 8.15674 6.56013C8.2434 6.60289 8.34068 6.61931 8.43665 6.60798C8.65575 6.61774 8.87093 6.54803 9.04272 6.41169C9.21452 6.27536 9.33131 6.08187 9.37158 5.86628C9.39476 5.69775 9.42813 5.53077 9.47156 5.36628H9.02356C8.82402 5.34778 8.62307 5.37944 8.43896 5.45857C8.25486 5.5377 8.09349 5.66141 7.9696 5.81892V5.82283ZM0.0585938 7.74226L1.52258 0.569897H4.82959C5.12439 0.567284 5.41554 0.635509 5.67859 0.768627C5.94163 0.901745 6.16895 1.09595 6.34143 1.33503C6.51391 1.57412 6.62656 1.85105 6.66992 2.14265C6.71328 2.43426 6.68603 2.73189 6.59058 3.01081C6.49539 3.66666 6.16664 4.2661 5.66467 4.6988C5.16271 5.1315 4.52136 5.36882 3.85864 5.36628H2.47559L2.00061 7.74226H0.0585938ZM2.75159 3.99226H3.66162C3.92782 3.97102 4.17986 3.86353 4.37988 3.6866C4.5799 3.50966 4.71707 3.27243 4.77063 3.01081C4.8126 2.90317 4.828 2.7873 4.81555 2.67244C4.8031 2.55757 4.76316 2.4473 4.6991 2.35115C4.63503 2.255 4.54873 2.17591 4.44751 2.12019C4.34629 2.06447 4.23306 2.03355 4.11755 2.03083H3.1676L2.75159 3.99226Z" fill="#3284AE"/>
</svg>
