<svg xmlns="http://www.w3.org/2000/svg" width="232" height="37" fill="none"><path fill="#D7B686" d="M7.564 29.134a3.71 3.71 0 0 1-.936-.144 3.05 3.05 0 0 1-1.008-.432 2.214 2.214 0 0 1-.828-.864c-.216-.36-.324-.84-.324-1.44 0-.84.204-1.944.612-3.312a250.15 250.15 0 0 1 1.404-4.608c.408-1.296.804-2.64 1.188-4.032.384-1.392.696-2.784.936-4.176.264-1.392.396-2.724.396-3.996 0-.888-.036-1.716-.108-2.484-.048-.768-.228-1.38-.54-1.836-.288-.48-.792-.72-1.512-.72-.672 0-1.248.204-1.728.612-.456.384-.84.888-1.152 1.512a9.114 9.114 0 0 0-.648 1.98c-.12.696-.18 1.344-.18 1.944 0 .792.108 1.44.324 1.944-.936 0-1.596-.252-1.98-.756-.384-.528-.576-1.14-.576-1.836 0-.744.168-1.488.504-2.232.36-.744.84-1.428 1.44-2.052A7.431 7.431 0 0 1 4.972.658a5.703 5.703 0 0 1 2.52-.576c1.488 0 2.592.588 3.312 1.764.744 1.152 1.116 2.7 1.116 4.644 0 1.752-.252 3.612-.756 5.58a82.305 82.305 0 0 1-1.62 5.688c-.384 1.2-.756 2.352-1.116 3.456a45.19 45.19 0 0 0-.828 2.988c-.216.912-.324 1.716-.324 2.412 0 .456.072.804.216 1.044.144.24.432.36.864.36.6 0 1.26-.288 1.98-.864.744-.552 1.488-1.308 2.232-2.268a29.4 29.4 0 0 0 2.196-3.168 37.346 37.346 0 0 0 1.944-3.6 31.452 31.452 0 0 0 1.476-3.492c.408-1.104.66-2.052.756-2.844.792 0 1.344.204 1.656.612.336.408.504.792.504 1.152 0 .384-.156.972-.468 1.764-.312.792-.684 1.68-1.116 2.664-.36.864-.732 1.788-1.116 2.772a34.95 34.95 0 0 0-.936 2.952c-.24.984-.36 1.92-.36 2.808 0 .456.06.816.18 1.08.12.288.396.432.828.432.672 0 1.452-.348 2.34-1.044.888-.672 1.8-1.596 2.736-2.772.96-1.2 1.884-2.544 2.772-4.032a40.725 40.725 0 0 0 2.448-4.644 35.07 35.07 0 0 0 1.728-4.788c.432-1.56.648-3 .648-4.32 0-1.2-.18-2.076-.54-2.628-.36-.576-.84-.948-1.44-1.116.336-.576.684-.996 1.044-1.26.384-.264.732-.396 1.044-.396.504 0 .996.324 1.476.972.48.648.72 1.656.72 3.024 0 1.32-.252 2.82-.756 4.5-.48 1.68-1.14 3.432-1.98 5.256-.84 1.8-1.8 3.552-2.88 5.256a39.459 39.459 0 0 1-3.384 4.608c-1.176 1.368-2.34 2.46-3.492 3.276-1.152.816-2.22 1.224-3.204 1.224-.456 0-.924-.096-1.404-.288a3.015 3.015 0 0 1-1.224-.9c-.312-.384-.468-.888-.468-1.512 0-.36.06-.816.18-1.368.144-.576.324-1.2.54-1.872-1.224 1.728-2.484 3.144-3.78 4.248-1.272 1.128-2.496 1.692-3.672 1.692Zm27.898-1.548c-1.464 0-2.568-.408-3.312-1.224-.72-.792-1.08-1.776-1.08-2.952 0-1.08.264-2.22.792-3.42a14.96 14.96 0 0 1 2.16-3.384c.912-1.056 1.908-1.908 2.988-2.556 1.08-.672 2.148-1.008 3.204-1.008.552 0 1.056.144 1.512.432.48.288.72.876.72 1.764 0 .912-.276 1.776-.828 2.592-.528.792-1.236 1.5-2.124 2.124a12.724 12.724 0 0 1-2.88 1.548 12.056 12.056 0 0 1-3.096.72c-.048.24-.084.468-.108.684a5.495 5.495 0 0 0 .072 1.692c.096.36.252.696.468 1.008.216.288.504.516.864.684.384.168.852.252 1.404.252 1.032 0 2.052-.288 3.06-.864 1.008-.6 1.944-1.38 2.808-2.34a15.238 15.238 0 0 0 2.196-3.168l.432.324c-.648 1.44-1.476 2.688-2.484 3.744-.984 1.056-2.064 1.872-3.24 2.448-1.152.6-2.328.9-3.528.9Zm-1.764-6.048c.648-.216 1.38-.528 2.196-.936a16.198 16.198 0 0 0 2.34-1.512c.768-.576 1.392-1.212 1.872-1.908.504-.696.756-1.428.756-2.196 0-.264-.048-.468-.144-.612-.096-.144-.3-.216-.612-.216-.576 0-1.188.228-1.836.684-.648.432-1.272 1.008-1.872 1.728-.6.72-1.14 1.512-1.62 2.376-.48.864-.84 1.728-1.08 2.592Zm12.852 5.544c-1.031 0-1.775-.36-2.231-1.08-.433-.696-.649-1.572-.649-2.628 0-1.152.216-2.52.648-4.104a47.367 47.367 0 0 1 1.693-5.004c.72-1.752 1.5-3.456 2.34-5.112.84-1.68 1.68-3.204 2.52-4.572.84-1.368 1.607-2.46 2.303-3.276C53.895.49 54.46.082 54.867.082c.264 0 .48.156.648.468.167.288.3.648.395 1.08.097.408.145.78.145 1.116 0 .648-.169 1.5-.505 2.556-.311 1.032-.767 2.196-1.367 3.492a34.413 34.413 0 0 1-2.089 3.888 36.238 36.238 0 0 1-2.627 3.744c-.936 1.2-1.932 2.232-2.989 3.096a29.422 29.422 0 0 0-.36 1.908c-.072.6-.108 1.176-.108 1.728 0 .936.133 1.632.397 2.088.264.456.66.684 1.188.684.648 0 1.284-.288 1.907-.864.648-.576 1.248-1.296 1.8-2.16.577-.888 1.069-1.8 1.477-2.736l.54.288c-.96 2.04-2.005 3.66-3.133 4.86-1.127 1.176-2.34 1.764-3.636 1.764Zm.253-8.784c.84-.84 1.656-1.8 2.448-2.88a39.391 39.391 0 0 0 2.196-3.42 44.058 44.058 0 0 0 1.835-3.42c.529-1.104.937-2.088 1.225-2.952.288-.888.431-1.572.431-2.052 0-.24-.035-.396-.108-.468-.047-.072-.096-.108-.143-.108-.192 0-.529.312-1.008.936-.457.6-.997 1.416-1.62 2.448A46.18 46.18 0 0 0 50.15 9.91a73.838 73.838 0 0 0-1.873 4.14 47.176 47.176 0 0 0-1.475 4.248Zm9.12 9.72c-1.153 0-2.113-.384-2.88-1.152-.769-.768-1.153-1.92-1.153-3.456 0-1.2.228-2.364.684-3.492a11.84 11.84 0 0 1 1.872-3.096c.768-.912 1.62-1.632 2.556-2.16.936-.552 1.86-.828 2.772-.828.984 0 1.656.288 2.016.864.36.576.54 1.176.54 1.8 0 .696-.168 1.308-.504 1.836-.312.528-.744.792-1.296.792-.408 0-.756-.18-1.044-.54.36-.192.672-.576.936-1.152.264-.6.396-1.164.396-1.692 0-.288-.06-.504-.18-.648-.096-.168-.3-.252-.612-.252-.648 0-1.32.288-2.016.864-.672.576-1.308 1.32-1.908 2.232a16.14 16.14 0 0 0-1.44 2.88c-.36 1.008-.54 1.956-.54 2.844 0 .744.18 1.428.54 2.052.36.624 1.056.936 2.088.936.96 0 1.92-.264 2.88-.792.984-.528 1.896-1.284 2.736-2.268.84-.984 1.512-2.136 2.016-3.456l.468.36a13.666 13.666 0 0 1-2.268 3.888c-.96 1.128-2.016 2.016-3.168 2.664-1.152.648-2.316.972-3.492.972Zm10.268-.864c-1.032 0-1.764-.324-2.196-.972-.432-.624-.648-1.392-.648-2.304 0-.744.12-1.512.36-2.304.24-.792.552-1.536.936-2.232.408-.696.852-1.26 1.332-1.692.504-.432 1.008-.648 1.512-.648.12 0 .24.024.36.072.144.024.276.06.396.108-.216.192-.48.552-.792 1.08a13.571 13.571 0 0 0-.828 1.764 20.855 20.855 0 0 0-.684 1.944c-.168.648-.252 1.2-.252 1.656 0 .72.12 1.248.36 1.584.24.312.552.468.936.468.504 0 1.104-.264 1.8-.792.696-.552 1.38-1.248 2.052-2.088-.672-.552-1.2-1.272-1.584-2.16a7.493 7.493 0 0 1-.54-2.772c0-.792.132-1.536.396-2.232.288-.696.696-1.248 1.224-1.656.528-.432 1.164-.648 1.908-.648.984 0 1.644.264 1.98.792.336.528.504 1.188.504 1.98 0 .936-.228 1.98-.684 3.132a18.642 18.642 0 0 1-1.728 3.276c.432.24.888.36 1.368.36a4.56 4.56 0 0 0 1.296-.216c.48-.168.948-.444 1.404-.828.48-.384.864-.9 1.152-1.548l.432.36c-.48 1.128-1.164 1.932-2.052 2.412-.864.456-1.692.684-2.484.684-.312 0-.612-.024-.9-.072a4.823 4.823 0 0 1-.828-.288c-.816 1.08-1.716 1.98-2.7 2.7-.96.72-1.896 1.08-2.808 1.08Zm5.292-5.292c.6-.888 1.092-1.812 1.476-2.772.408-.984.612-1.908.612-2.772 0-.696-.108-1.2-.324-1.512-.192-.336-.444-.504-.756-.504-.48 0-.972.348-1.476 1.044-.504.696-.756 1.572-.756 2.628 0 .696.096 1.404.288 2.124.216.696.528 1.284.936 1.764Zm23.516 5.256c-.84 0-1.451-.264-1.835-.792-.385-.504-.576-1.116-.576-1.836 0-.6.084-1.2.252-1.8.191-.6.371-1.188.54-1.764.192-.576.288-1.092.288-1.548 0-.48-.109-.816-.325-1.008a1.058 1.058 0 0 0-.72-.288c-.6 0-1.26.468-1.98 1.404-.695.936-1.608 2.256-2.736 3.96a11.608 11.608 0 0 0-.971 1.764 52.064 52.064 0 0 1-.757 1.584c-.192 0-.431-.024-.72-.072a2.783 2.783 0 0 1-.791-.252c-.217-.096-.325-.228-.325-.396s.108-.564.325-1.188c.24-.648.503-1.392.791-2.232.313-.864.576-1.728.792-2.592.24-.888.36-1.644.36-2.268 0-.408-.072-.732-.216-.972-.12-.264-.347-.396-.683-.396-.529 0-1.165.324-1.909.972-.743.624-1.511 1.452-2.303 2.484a31.306 31.306 0 0 0-2.269 3.42 22.76 22.76 0 0 0-1.691 3.672c-.217 0-.48-.036-.793-.108a3.04 3.04 0 0 1-.791-.288c-.24-.12-.36-.24-.36-.36 0-.144.132-.564.395-1.26.24-.72.528-1.572.865-2.556.312-1.008.588-2.028.828-3.06.264-1.032.395-1.944.395-2.736.145-.168.373-.336.684-.504.313-.168.636-.252.972-.252.337 0 .576.084.72.252.169.168.252.396.252.684 0 .312-.095.852-.287 1.62a43.393 43.393 0 0 1-.648 2.484c.48-.768 1.02-1.548 1.62-2.34a22.347 22.347 0 0 1 1.944-2.232c.671-.672 1.344-1.212 2.016-1.62.695-.432 1.367-.648 2.016-.648.744 0 1.248.276 1.511.828.288.528.432 1.164.432 1.908 0 .6-.072 1.236-.216 1.908a18.76 18.76 0 0 1-.431 1.836c-.168.552-.325.996-.469 1.332a26.913 26.913 0 0 1 1.657-2.628c.623-.864 1.295-1.56 2.016-2.088.72-.552 1.488-.828 2.303-.828.768 0 1.296.228 1.584.684.313.456.469.996.469 1.62 0 .624-.109 1.308-.325 2.052a45.788 45.788 0 0 1-.683 2.16c-.216.696-.325 1.296-.325 1.8 0 .312.072.6.216.864.168.24.457.36.865.36.672 0 1.296-.3 1.872-.9.6-.624 1.152-1.368 1.656-2.232.503-.888.935-1.74 1.295-2.556l.432.504a19.513 19.513 0 0 1-1.476 3.024c-.6.984-1.308 1.8-2.124 2.448-.791.648-1.667.972-2.627.972Zm9.018.468c-1.464 0-2.568-.408-3.312-1.224-.72-.792-1.08-1.776-1.08-2.952 0-1.08.264-2.22.792-3.42a14.96 14.96 0 0 1 2.16-3.384c.912-1.056 1.908-1.908 2.988-2.556 1.08-.672 2.148-1.008 3.204-1.008.552 0 1.056.144 1.512.432.48.288.72.876.72 1.764 0 .912-.276 1.776-.828 2.592-.528.792-1.236 1.5-2.124 2.124a12.724 12.724 0 0 1-2.88 1.548 12.056 12.056 0 0 1-3.096.72c-.048.24-.084.468-.108.684a5.495 5.495 0 0 0 .072 1.692c.096.36.252.696.468 1.008.216.288.504.516.864.684.384.168.852.252 1.404.252 1.032 0 2.052-.288 3.06-.864 1.008-.6 1.944-1.38 2.808-2.34a15.238 15.238 0 0 0 2.196-3.168l.432.324c-.648 1.44-1.476 2.688-2.484 3.744-.984 1.056-2.064 1.872-3.24 2.448-1.152.6-2.328.9-3.528.9Zm-1.764-6.048c.648-.216 1.38-.528 2.196-.936a16.198 16.198 0 0 0 2.34-1.512c.768-.576 1.392-1.212 1.872-1.908.504-.696.756-1.428.756-2.196 0-.264-.048-.468-.144-.612-.096-.144-.3-.216-.612-.216-.576 0-1.188.228-1.836.684-.648.432-1.272 1.008-1.872 1.728-.6.72-1.14 1.512-1.62 2.376-.48.864-.84 1.728-1.08 2.592Zm22.276 6.12c-1.032 0-1.824-.3-2.376-.9-.552-.6-.828-1.488-.828-2.664 0-1.056.192-2.352.576-3.888.408-1.56.912-3.156 1.512-4.788a8.003 8.003 0 0 0-.684-.108 4.556 4.556 0 0 1-.612-.18v-.648c.192.024.42.048.684.072.264.024.564.048.9.072a53.25 53.25 0 0 1 1.62-3.744 39.656 39.656 0 0 1 1.692-3.24c.576-.96 1.116-1.716 1.62-2.268.528-.576.972-.864 1.332-.864a.69.69 0 0 1 .504.216c.168.12.252.312.252.576 0 .408-.252 1.08-.756 2.016-.504.912-1.128 2.004-1.872 3.276a51.006 51.006 0 0 0-2.16 4.14h1.332c.792 0 1.62-.012 2.484-.036a33.095 33.095 0 0 0 2.664-.18v.648c-1.32.144-2.508.252-3.564.324a40.245 40.245 0 0 1-2.772.108h-.54a31.77 31.77 0 0 0-1.404 3.924c-.384 1.344-.576 2.652-.576 3.924 0 1.032.156 1.776.468 2.232.312.432.828.648 1.548.648 1.248 0 2.472-.552 3.672-1.656 1.2-1.104 2.256-2.604 3.168-4.5l.468.36a14.977 14.977 0 0 1-2.196 3.636c-.864 1.08-1.824 1.932-2.88 2.556-1.056.624-2.148.936-3.276.936Zm9.689-.504c-1.032 0-1.764-.324-2.196-.972-.432-.624-.648-1.392-.648-2.304 0-.744.12-1.512.36-2.304.24-.792.552-1.536.936-2.232.408-.696.852-1.26 1.332-1.692.504-.432 1.008-.648 1.512-.648.12 0 .24.024.36.072.144.024.276.06.396.108-.216.192-.48.552-.792 1.08a13.571 13.571 0 0 0-.828 1.764 20.855 20.855 0 0 0-.684 1.944c-.168.648-.252 1.2-.252 1.656 0 .72.12 1.248.36 1.584.24.312.552.468.936.468.504 0 1.104-.264 1.8-.792.696-.552 1.38-1.248 2.052-2.088-.672-.552-1.2-1.272-1.584-2.16a7.493 7.493 0 0 1-.54-2.772c0-.792.132-1.536.396-2.232.288-.696.696-1.248 1.224-1.656.528-.432 1.164-.648 1.908-.648.984 0 1.644.264 1.98.792.336.528.504 1.188.504 1.98 0 .936-.228 1.98-.684 3.132a18.642 18.642 0 0 1-1.728 3.276c.432.24.888.36 1.368.36a4.56 4.56 0 0 0 1.296-.216c.48-.168.948-.444 1.404-.828.48-.384.864-.9 1.152-1.548l.432.36c-.48 1.128-1.164 1.932-2.052 2.412-.864.456-1.692.684-2.484.684-.312 0-.612-.024-.9-.072a4.823 4.823 0 0 1-.828-.288c-.816 1.08-1.716 1.98-2.7 2.7-.96.72-1.896 1.08-2.808 1.08Zm5.292-5.292c.6-.888 1.092-1.812 1.476-2.772.408-.984.612-1.908.612-2.772 0-.696-.108-1.2-.324-1.512-.192-.336-.444-.504-.756-.504-.48 0-.972.348-1.476 1.044-.504.696-.756 1.572-.756 2.628 0 .696.096 1.404.288 2.124.216.696.528 1.284.936 1.764Zm17.856 7.272c-.6 0-1.164-.168-1.692-.504-.528-.336-.792-.768-.792-1.296 0-.264.06-.588.18-.972.12-.36.228-.696.324-1.008.768-2.352 1.488-4.548 2.16-6.588a340.03 340.03 0 0 1 2.016-5.94c.672-1.92 1.38-3.84 2.124-5.76.768-1.92 1.62-3.924 2.556-6.012a10.1 10.1 0 0 0-2.448.756c-.696.312-1.26.6-1.692.864-.432.24-.72.36-.864.36-.096 0-.24-.048-.432-.144a3.71 3.71 0 0 1-.468-.396c-.144-.168-.216-.312-.216-.432a53.684 53.684 0 0 1 2.196-.864 22.127 22.127 0 0 1 2.772-.792c.984-.216 1.98-.324 2.988-.324 1.056 0 2.124.144 3.204.432 1.104.288 2.112.732 3.024 1.332a6.994 6.994 0 0 1 2.196 2.16c.552.864.828 1.872.828 3.024 0 1.248-.276 2.328-.828 3.24a7.593 7.593 0 0 1-2.196 2.268c-.912.6-1.896 1.092-2.952 1.476-1.056.36-2.112.648-3.168.864a29.52 29.52 0 0 1-2.772.396c-.816.048-1.416.072-1.8.072h-.36a730.073 730.073 0 0 0-2.088 7.308c-.648 2.4-1.248 4.56-1.8 6.48Zm4.032-14.364a19.528 19.528 0 0 0 3.996-.648 14.463 14.463 0 0 0 3.744-1.548c1.128-.696 2.04-1.548 2.736-2.556.696-1.032 1.044-2.232 1.044-3.6 0-1.296-.312-2.352-.936-3.168-.6-.816-1.404-1.416-2.412-1.8a8.188 8.188 0 0 0-3.168-.612c-.888 1.752-1.752 3.852-2.592 6.3a168.782 168.782 0 0 0-2.412 7.632Zm10.807 12.924c-.744 0-1.368-.252-1.872-.756-.528-.48-.792-1.224-.792-2.232 0-.864.192-1.788.576-2.772a13.578 13.578 0 0 1 1.584-2.952 16.213 16.213 0 0 1 2.268-2.664c.864-.816 1.764-1.464 2.7-1.944.96-.48 1.908-.72 2.844-.72.936 0 1.716.252 2.34.756.624.48.936 1.128.936 1.944 0 .6-.168 1.008-.504 1.224-.312.216-.732.324-1.26.324.048-.192.084-.396.108-.612.048-.24.072-.456.072-.648 0-.552-.132-1.02-.396-1.404-.264-.408-.72-.612-1.368-.612-.672 0-1.356.24-2.052.72-.696.456-1.368 1.08-2.016 1.872a15.582 15.582 0 0 0-1.728 2.52c-.504.912-.9 1.812-1.188 2.7-.288.888-.432 1.68-.432 2.376 0 .936.324 1.404.972 1.404.552 0 1.152-.252 1.8-.756.648-.528 1.308-1.188 1.98-1.98a39.7 39.7 0 0 0 1.98-2.52 77.896 77.896 0 0 0 1.656-2.376c.096-.144.156-.216.18-.216.144.024.324.072.54.144.24.072.444.168.612.288.168.12.252.276.252.468 0 .216-.108.516-.324.9-.216.36-.456.78-.72 1.26-.264.48-.504.972-.72 1.476-.216.48-.324.936-.324 1.368 0 .36.096.72.288 1.08.192.336.504.504.936.504.648 0 1.5-.468 2.556-1.404 1.056-.96 2.124-2.388 3.204-4.284l.36.36c-.504 1.296-1.152 2.436-1.944 3.42s-1.644 1.752-2.556 2.304c-.888.552-1.764.828-2.628.828-.888 0-1.548-.264-1.98-.792-.408-.528-.612-1.104-.612-1.728 0-.144.012-.3.036-.468l.072-.576c-1.032 1.392-1.98 2.436-2.844 3.132-.84.696-1.704 1.044-2.592 1.044Zm11.683 8.388c-.192 0-.372-.108-.54-.324a1.918 1.918 0 0 1-.432-.648c-.096-.216-.144-.348-.144-.396a50.506 50.506 0 0 1 1.008-3.168l.972-2.844c.312-.96.624-2.088.936-3.384.312-1.32.636-2.952.972-4.896.336-1.944.672-4.356 1.008-7.236.024-.216.072-.372.144-.468.072-.096.252-.144.54-.144.624 0 1.068.18 1.332.54.264.336.396.708.396 1.116 0 .336-.072.936-.216 1.8a57.121 57.121 0 0 1-.612 3.06c.408-.792.912-1.596 1.512-2.412a9.538 9.538 0 0 1 2.124-2.052 4.44 4.44 0 0 1 2.592-.828c1.056 0 1.92.384 2.592 1.152.696.744 1.044 1.728 1.044 2.952 0 .936-.216 1.932-.648 2.988a11.065 11.065 0 0 1-1.764 2.952 9.182 9.182 0 0 1-2.664 2.232c-1.032.576-2.172.864-3.42.864-.624 0-1.128-.072-1.512-.216-.384-.144-.576-.288-.576-.432 0-.096.084-.156.252-.18h.648a5.78 5.78 0 0 0 2.736-.684 8.903 8.903 0 0 0 2.376-1.872 8.702 8.702 0 0 0 1.62-2.556c.408-.936.612-1.86.612-2.772 0-.768-.168-1.416-.504-1.944-.312-.552-.828-.828-1.548-.828-.624 0-1.248.204-1.872.612-.6.384-1.176.888-1.728 1.512-.528.6-1.008 1.236-1.44 1.908-.408.648-.72 1.236-.936 1.764-.432 1.8-.864 3.528-1.296 5.184-.432 1.68-.852 3.192-1.26 4.536-.384 1.368-.732 2.484-1.044 3.348-.336.864-.612 1.392-.828 1.584a.59.59 0 0 1-.432.18Zm18.059-8.388c-.744 0-1.368-.252-1.872-.756-.528-.48-.792-1.224-.792-2.232 0-.864.192-1.788.576-2.772a13.578 13.578 0 0 1 1.584-2.952 16.213 16.213 0 0 1 2.268-2.664c.864-.816 1.764-1.464 2.7-1.944.96-.48 1.908-.72 2.844-.72.936 0 1.716.252 2.34.756.624.48.936 1.128.936 1.944 0 .6-.168 1.008-.504 1.224-.312.216-.732.324-1.26.324.048-.192.084-.396.108-.612.048-.24.072-.456.072-.648 0-.552-.132-1.02-.396-1.404-.264-.408-.72-.612-1.368-.612-.672 0-1.356.24-2.052.72-.696.456-1.368 1.08-2.016 1.872a15.582 15.582 0 0 0-1.728 2.52c-.504.912-.9 1.812-1.188 2.7-.288.888-.432 1.68-.432 2.376 0 .936.324 1.404.972 1.404.552 0 1.152-.252 1.8-.756.648-.528 1.308-1.188 1.98-1.98a39.7 39.7 0 0 0 1.98-2.52 77.896 77.896 0 0 0 1.656-2.376c.096-.144.156-.216.18-.216.144.024.324.072.54.144.24.072.444.168.612.288.168.12.252.276.252.468 0 .216-.108.516-.324.9-.216.36-.456.78-.72 1.26-.264.48-.504.972-.72 1.476-.216.48-.324.936-.324 1.368 0 .36.096.72.288 1.08.192.336.504.504.936.504.648 0 1.5-.468 2.556-1.404 1.056-.96 2.124-2.388 3.204-4.284l.36.36c-.504 1.296-1.152 2.436-1.944 3.42s-1.644 1.752-2.556 2.304c-.888.552-1.764.828-2.628.828-.888 0-1.548-.264-1.98-.792-.408-.528-.612-1.104-.612-1.728 0-.144.012-.3.036-.468l.072-.576c-1.032 1.392-1.98 2.436-2.844 3.132-.84.696-1.704 1.044-2.592 1.044Zm15.499 8.388c-.6 0-1.128-.168-1.584-.504-.456-.312-.684-.78-.684-1.404 0-.768.192-1.452.576-2.052.384-.6.9-1.152 1.548-1.656a16.288 16.288 0 0 1 2.232-1.44c.84-.456 1.716-.912 2.628-1.368.336-.888.672-1.872 1.008-2.952.36-1.104.696-2.316 1.008-3.636-.768 1.248-1.596 2.328-2.484 3.24-.864.888-1.788 1.332-2.772 1.332-.456 0-.912-.096-1.368-.288a2.787 2.787 0 0 1-1.08-.972c-.288-.432-.432-.984-.432-1.656 0-.672.108-1.452.324-2.34.24-.888.528-1.752.864-2.592.336-.84.684-1.536 1.044-2.088s.672-.828.936-.828c.096 0 .264.036.504.108.264.072.504.18.72.324.24.12.36.252.36.396-.216.312-.456.756-.72 1.332a26.983 26.983 0 0 0-.792 1.944c-.24.696-.444 1.38-.612 2.052-.168.672-.252 1.248-.252 1.728 0 .432.096.78.288 1.044.192.264.528.396 1.008.396.456 0 .96-.216 1.512-.648.576-.456 1.14-1.032 1.692-1.728a18.68 18.68 0 0 0 1.584-2.232 9.4 9.4 0 0 0 .18-.792c.072-.288.132-.576.18-.864.072-.336.24-.72.504-1.152.288-.456.732-.684 1.332-.684.12 0 .24.012.36.036.12 0 .252.024.396.072 0 .384-.12 1.104-.36 2.16-.216 1.032-.54 2.244-.972 3.636-.408 1.392-.9 2.82-1.476 4.284 1.128-.432 2.232-1.14 3.312-2.124 1.08-1.008 1.956-2.34 2.628-3.996l.468.36a8.427 8.427 0 0 1-1.656 3.024c-.72.84-1.536 1.572-2.448 2.196-.912.6-1.812 1.104-2.7 1.512a39.987 39.987 0 0 1-2.052 4.32c-.72 1.344-1.488 2.424-2.304 3.24-.792.84-1.608 1.26-2.448 1.26Zm-.18-1.152c.36 0 .96-.48 1.8-1.44.864-.936 1.776-2.592 2.736-4.968a65.79 65.79 0 0 0-2.736 1.548c-.84.528-1.512 1.092-2.016 1.692a3.15 3.15 0 0 0-.756 2.088c0 .192.072.42.216.684.144.264.396.396.756.396Z"/></svg>